# xmcd
#
# Track frame offsets:
#	150
#	13058
#	24492
#	38250
#	53843
#	75479
#	93573
#	105119
#	122423
#	140009
#	159565
#	170166
#	186111
#	201845
#	212388
#	228276
#
# Disc length: 3315 seconds
#
# Revision: 1
# Processed by: cddbd v1.5.2PL0 Copyright (c) Steve Scherf et al.
# Submitted via: audiograbber 1.83.01
#
DISCID=c10cf110
DTITLE=Willie Nelson - Natural Renegade
DYEAR=2007
DGENRE=Country
TTITLE0=Crazy
TTITLE1=Night Life
TTITLE2=Funny How Time Slips Away
TTITLE3=Mammas Don't Let Your Babies Grow Up To Be Cowboys (Waylon Jennings)
TTITLE4=Pancho And Lefty (Merle Haggard)
TTITLE5=Red Headed Stranger
TTITLE6=On The Road Again
TTITLE7=Unchained Melody
TTITLE8=All Of Me
TTITLE9=Georgia On My Mind
TTITLE10=Blue Eyes Crying In The Rain
TTITLE11=Always On My Mind
TTITLE12=It's Not Supposed To Be That Way
TTITLE13=I Never Cared For You
TTITLE14=These Lonely Nights
TTITLE15=Angel Flying Too Close To The Ground
EXTD=
EXTT0=
EXTT1=
EXTT2=
EXTT3=
EXTT4=
EXTT5=
EXTT6=
EXTT7=
EXTT8=
EXTT9=
EXTT10=
EXTT11=
EXTT12=
EXTT13=
EXTT14=
EXTT15=
PLAYORDER=
